<svg width="88" height="88" viewBox="0 0 88 88" fill="none" xmlns="http://www.w3.org/2000/svg">
<rect width="88" height="88" rx="44" fill="#34A5DD" fill-opacity="0.15"/>
<g clip-path="url(#clip0_646_1706)">
<path d="M49.75 29.625H38.25L33.9914 23.2353C33.3535 22.2794 34.0363 21 35.1863 21H52.8137C53.9637 21 54.6465 22.2794 54.0086 23.2353L49.75 29.625ZM38.25 32.5H49.75C50.0914 32.7246 50.4777 32.9762 50.8371 33.2547C56.0121 36.516 67 43.5418 67 58.375C67 63.1367 63.1367 67 58.375 67H29.625C24.8615 67 21 63.1367 21 58.375C21 43.5418 31.9879 36.516 37.082 33.2547C37.5223 32.9762 37.9086 32.7246 38.25 32.5ZM45.8059 41.125C45.8059 40.1277 44.9973 39.3191 43.9191 39.3191C43.0027 39.3191 42.1941 40.1277 42.1941 41.125V41.6641C41.691 41.7719 41.134 41.9246 40.7656 42.1223C39.427 42.7332 38.259 43.8652 37.9715 45.5094C37.8098 46.4258 37.8996 47.3152 38.277 48.1148C38.6543 48.9055 39.2383 49.4625 39.8313 49.8668C40.8734 50.5766 42.248 50.9898 43.2992 51.3043L43.4969 51.3582C44.7547 51.7445 45.5992 52.023 46.1293 52.4094C46.3539 52.5711 46.4348 52.6969 46.4617 52.7777C46.4977 52.8496 46.5516 53.0113 46.4887 53.3707C46.4348 53.6852 46.2641 53.9547 45.7699 54.1613C45.2219 54.3949 44.3324 54.5117 43.1824 54.332C42.6434 54.2422 41.682 53.9188 40.8285 53.6313C40.6309 53.5594 40.4332 53.4965 40.2535 53.4336C39.3102 53.1191 38.2949 53.6313 37.9805 54.5746C37.666 55.518 38.1781 56.5332 39.1215 56.7668C39.2293 56.8836 39.3641 56.9285 39.5168 56.9824C40.1457 57.225 41.3406 57.6023 42.1941 57.8V58.375C42.1941 59.3723 43.0027 60.1809 43.9191 60.1809C44.9973 60.1809 45.8059 59.3723 45.8059 58.375V57.8809C46.282 57.791 46.7492 57.5754 47.1805 57.4676C48.6 56.8656 49.732 55.6977 50.0285 53.9906C50.1902 53.0563 50.1184 52.1578 49.759 51.3402C49.4086 50.5316 48.8426 49.9387 48.2406 49.5074C47.1535 48.7078 45.698 48.2766 44.6109 47.9441L44.4582 47.9262C43.2633 47.5398 42.4008 47.2703 41.8527 46.893C41.6191 46.7313 41.5473 46.6234 41.5293 46.5785C41.5113 46.5426 41.4574 46.4348 41.5113 46.1293C41.5473 45.9496 41.682 45.6531 42.248 45.4016C42.7512 45.141 43.7215 44.9973 44.8176 45.0871C45.2129 45.2309 46.4258 45.4645 46.7762 45.5543C47.7285 45.8148 48.7168 45.2398 48.9684 44.2785C49.2289 43.3262 48.6539 42.3379 47.6926 42.0863C47.2973 41.9785 46.3988 41.7988 45.8059 41.691V41.125Z" fill="#34A5DD"/>
</g>
<defs>
<clipPath id="clip0_646_1706">
<rect width="46" height="46" fill="white" transform="translate(21 21)"/>
</clipPath>
</defs>
</svg>
