<svg width="173" height="211" viewBox="0 0 173 211" fill="none" xmlns="http://www.w3.org/2000/svg">
<g clip-path="url(#clip0_341_2592)">
<circle cx="91.2726" cy="87.2924" r="0.902707" transform="rotate(-36 91.2726 87.2924)" fill="white" fill-opacity="0.4"/>
<circle cx="83.6775" cy="98.5738" r="0.902707" transform="rotate(-72 83.6775 98.5738)" fill="white" fill-opacity="0.4"/>
<circle cx="84.4111" cy="112.147" r="0.902707" transform="rotate(-108 84.4111 112.147)" fill="white" fill-opacity="0.4"/>
<circle cx="92.2573" cy="122.828" r="0.902707" transform="rotate(-144 92.2573 122.828)" fill="white" fill-opacity="0.4"/>
<circle cx="105.512" cy="126.894" r="0.902707" transform="rotate(180 105.512 126.894)" fill="white" fill-opacity="0.4"/>
<circle cx="118.075" cy="122.113" r="0.902707" transform="rotate(144 118.075 122.113)" fill="white" fill-opacity="0.4"/>
<circle cx="125.828" cy="110.99" r="0.902707" transform="rotate(108 125.828 110.99)" fill="white" fill-opacity="0.4"/>
<circle cx="125.452" cy="97.4163" r="0.902707" transform="rotate(72 125.452 97.4163)" fill="white" fill-opacity="0.4"/>
<circle cx="117.09" cy="86.5771" r="0.902707" transform="rotate(36 117.09 86.5771)" fill="white" fill-opacity="0.4"/>
<circle cx="104.295" cy="82.9702" r="0.902707" fill="white" fill-opacity="0.4"/>
<circle cx="83.3166" cy="85.4929" r="1.53319" transform="rotate(-47.5036 83.3166 85.4929)" fill="white" fill-opacity="0.4"/>
<circle cx="76.1587" cy="101.522" r="1.53319" transform="rotate(-83.5036 76.1587 101.522)" fill="white" fill-opacity="0.4"/>
<circle cx="80.1067" cy="118.609" r="1.53319" transform="rotate(-119.504 80.1067 118.609)" fill="white" fill-opacity="0.4"/>
<circle cx="92.5257" cy="130.58" r="1.53319" transform="rotate(-155.504 92.5257 130.58)" fill="white" fill-opacity="0.4"/>
<circle cx="110.311" cy="132.779" r="1.53319" transform="rotate(168.496 110.311 132.779)" fill="white" fill-opacity="0.4"/>
<circle cx="125.247" cy="123.897" r="1.53319" transform="rotate(132.496 125.247 123.897)" fill="white" fill-opacity="0.4"/>
<circle cx="132.632" cy="107.992" r="1.53319" transform="rotate(96.4964 132.632 107.992)" fill="white" fill-opacity="0.4"/>
<circle cx="129.119" cy="90.7893" r="1.53319" transform="rotate(60.4964 129.119 90.7893)" fill="white" fill-opacity="0.4"/>
<circle cx="116.094" cy="78.8505" r="1.53319" transform="rotate(24.4964 116.094 78.8505)" fill="white" fill-opacity="0.4"/>
<circle cx="98.9415" cy="77.1104" r="1.53319" transform="rotate(-11.5036 98.9415 77.1104)" fill="white" fill-opacity="0.4"/>
<circle cx="74.014" cy="87.975" r="2.12095" transform="rotate(-61.2791 74.014 87.975)" fill="white" fill-opacity="0.4"/>
<circle cx="69.9006" cy="108.847" r="2.12095" transform="rotate(-97.2791 69.9006 108.847)" fill="white" fill-opacity="0.4"/>
<circle cx="79.1565" cy="127.974" r="2.12095" transform="rotate(-133.279 79.1565 127.974)" fill="white" fill-opacity="0.4"/>
<circle cx="97.0113" cy="138.632" r="2.12095" transform="rotate(-169.279 97.0113 138.632)" fill="white" fill-opacity="0.4"/>
<circle cx="118.573" cy="136.416" r="2.12095" transform="rotate(154.721 118.573 136.416)" fill="white" fill-opacity="0.4"/>
<circle cx="133.816" cy="121.923" r="2.12095" transform="rotate(118.721 133.816 121.923)" fill="white" fill-opacity="0.4"/>
<circle cx="138.236" cy="101.161" r="2.12095" transform="rotate(82.7209 138.236 101.161)" fill="white" fill-opacity="0.4"/>
<circle cx="129.451" cy="81.8121" r="2.12095" transform="rotate(46.7209 129.451 81.8121)" fill="white" fill-opacity="0.4"/>
<circle cx="110.818" cy="71.2665" r="2.12095" transform="rotate(10.7209 110.818 71.2665)" fill="white" fill-opacity="0.4"/>
<circle cx="90.1468" cy="73.8011" r="2.12095" transform="rotate(-25.2791 90.1468 73.8011)" fill="white" fill-opacity="0.4"/>
<circle cx="64.3549" cy="93.8826" r="2.84353" transform="rotate(-75.5851 64.3549 93.8826)" fill="white" fill-opacity="0.4"/>
<circle cx="65.2997" cy="119.085" r="2.84353" transform="rotate(-111.585 65.2997 119.085)" fill="white" fill-opacity="0.4"/>
<circle cx="81.1926" cy="138.618" r="2.84353" transform="rotate(-147.585 81.1926 138.618)" fill="white" fill-opacity="0.4"/>
<circle cx="105.182" cy="146.25" r="2.84353" transform="rotate(176.415 105.182 146.25)" fill="white" fill-opacity="0.4"/>
<circle cx="129.435" cy="137.671" r="2.84353" transform="rotate(140.415 129.435 137.671)" fill="white" fill-opacity="0.4"/>
<circle cx="143.123" cy="116.675" r="2.84353" transform="rotate(104.415 143.123 116.675)" fill="white" fill-opacity="0.4"/>
<circle cx="142.433" cy="91.4137" r="2.84353" transform="rotate(68.4149 142.433 91.4137)" fill="white" fill-opacity="0.4"/>
<circle cx="126.885" cy="71.4671" r="2.84353" transform="rotate(32.4149 126.885 71.4671)" fill="white" fill-opacity="0.4"/>
<circle cx="102.829" cy="64.1124" r="2.84353" transform="rotate(-3.58511 102.829 64.1124)" fill="white" fill-opacity="0.4"/>
<circle cx="79.1196" cy="73.1226" r="2.84353" transform="rotate(-39.5851 79.1196 73.1226)" fill="white" fill-opacity="0.4"/>
<circle cx="56.9313" cy="103.826" r="3.62321" transform="rotate(-89.7132 56.9313 103.826)" fill="white" fill-opacity="0.4"/>
<circle cx="65.0456" cy="132.161" r="3.62321" transform="rotate(-125.713 65.0456 132.161)" fill="white" fill-opacity="0.4"/>
<circle cx="88.3729" cy="150.145" r="3.62321" transform="rotate(-161.713 88.3729 150.145)" fill="white" fill-opacity="0.4"/>
<circle cx="117.552" cy="151.519" r="3.62321" transform="rotate(162.287 117.552 151.519)" fill="white" fill-opacity="0.4"/>
<circle cx="142.293" cy="135.088" r="3.62321" transform="rotate(126.287 142.293 135.088)" fill="white" fill-opacity="0.4"/>
<circle cx="152.203" cy="107.476" r="3.62321" transform="rotate(90.2868 152.203 107.476)" fill="white" fill-opacity="0.4"/>
<circle cx="144.268" cy="79.1142" r="3.62321" transform="rotate(54.2868 144.268 79.1142)" fill="white" fill-opacity="0.4"/>
<circle cx="121.113" cy="60.8973" r="3.62321" transform="rotate(18.2868 121.113 60.8973)" fill="white" fill-opacity="0.4"/>
<circle cx="91.5826" cy="59.7832" r="3.62321" transform="rotate(-17.7132 91.5826 59.7832)" fill="white" fill-opacity="0.4"/>
<circle cx="67.3617" cy="76.1358" r="3.62321" transform="rotate(-53.7132 67.3617 76.1358)" fill="white" fill-opacity="0.4"/>
<circle cx="51.0539" cy="115.613" r="4.43127" transform="rotate(-102.898 51.0539 115.613)" fill="white" fill-opacity="0.4"/>
<circle cx="67.0608" cy="145.131" r="4.43127" transform="rotate(-138.898 67.0608 145.131)" fill="white" fill-opacity="0.4"/>
<circle cx="97.4373" cy="159.385" r="4.43127" transform="rotate(-174.898 97.4373 159.385)" fill="white" fill-opacity="0.4"/>
<circle cx="130.236" cy="153.733" r="4.43127" transform="rotate(149.102 130.236 153.733)" fill="white" fill-opacity="0.4"/>
<circle cx="153.711" cy="129.355" r="4.43127" transform="rotate(113.102 153.711 129.355)" fill="white" fill-opacity="0.4"/>
<circle cx="157.931" cy="96.2046" r="4.43127" transform="rotate(77.1016 157.931 96.2046)" fill="white" fill-opacity="0.4"/>
<circle cx="142.118" cy="66.6084" r="4.43127" transform="rotate(41.1016 142.118 66.6084)" fill="white" fill-opacity="0.4"/>
<circle cx="111.873" cy="52.0481" r="4.43127" transform="rotate(5.10157 111.873 52.0481)" fill="white" fill-opacity="0.4"/>
<circle cx="78.7493" cy="58.0848" r="4.43127" transform="rotate(-30.8984 78.7493 58.0848)" fill="white" fill-opacity="0.4"/>
<circle cx="55.8366" cy="82.2368" r="4.43127" transform="rotate(-66.8984 55.8366 82.2368)" fill="white" fill-opacity="0.4"/>
<circle cx="48.3049" cy="131.15" r="5.01354" transform="rotate(-116.554 48.3049 131.15)" fill="white" fill-opacity="0.4"/>
<circle cx="73.7653" cy="159.324" r="5.01354" transform="rotate(-152.554 73.7653 159.324)" fill="white" fill-opacity="0.4"/>
<circle cx="107.291" cy="166.269" r="5.01354" transform="rotate(171.446 107.291 166.269)" fill="white" fill-opacity="0.4"/>
<circle cx="138.391" cy="154.621" r="5.01354" transform="rotate(135.446 138.391 154.621)" fill="white" fill-opacity="0.4"/>
<circle cx="159.402" cy="122.755" r="5.01354" transform="rotate(99.4455 159.402 122.755)" fill="white" fill-opacity="0.4"/>
<circle cx="155.772" cy="87.1921" r="5.01354" transform="rotate(63.4455 155.772 87.1921)" fill="white" fill-opacity="0.4"/>
<circle cx="132.934" cy="58.6265" r="5.01354" transform="rotate(27.4455 132.934 58.6265)" fill="white" fill-opacity="0.4"/>
<circle cx="97.4853" cy="49.4887" r="5.01354" transform="rotate(-8.55449 97.4853 49.4887)" fill="white" fill-opacity="0.4"/>
<circle cx="63.1823" cy="61.9603" r="5.01354" transform="rotate(-44.5545 63.1823 61.9603)" fill="white" fill-opacity="0.4"/>
<circle cx="44.6844" cy="93.1843" r="5.01354" transform="rotate(-80.5545 44.6844 93.1843)" fill="white" fill-opacity="0.4"/>
<circle cx="48.7777" cy="148.304" r="5.46213" transform="rotate(-129.957 48.7777 148.304)" fill="white" fill-opacity="0.4"/>
<circle cx="82.901" cy="172.158" r="5.46213" transform="rotate(-165.957 82.901 172.158)" fill="white" fill-opacity="0.4"/>
<circle cx="124.321" cy="170.642" r="5.46213" transform="rotate(158.043 124.321 170.642)" fill="white" fill-opacity="0.4"/>
<circle cx="157.551" cy="147.495" r="5.46213" transform="rotate(122.043 157.551 147.495)" fill="white" fill-opacity="0.4"/>
<circle cx="168.299" cy="109.983" r="5.46213" transform="rotate(86.0432 168.299 109.983)" fill="white" fill-opacity="0.4"/>
<circle cx="155.048" cy="72.471" r="5.46213" transform="rotate(50.0432 155.048 72.471)" fill="white" fill-opacity="0.4"/>
<circle cx="122.864" cy="47.5752" r="5.46213" transform="rotate(14.0432 122.864 47.5752)" fill="white" fill-opacity="0.4"/>
<circle cx="81.9598" cy="44.4253" r="5.46213" transform="rotate(-21.9568 81.9598 44.4253)" fill="white" fill-opacity="0.4"/>
<circle cx="48.3136" cy="69.354" r="5.46213" transform="rotate(-57.9568 48.3136 69.354)" fill="white" fill-opacity="0.4"/>
<circle cx="36.5033" cy="108.09" r="5.46213" transform="rotate(-93.9568 36.5033 108.09)" fill="white" fill-opacity="0.4"/>
<circle cx="55.3104" cy="166.195" r="5.93804" transform="rotate(-143.016 55.3104 166.195)" fill="white" fill-opacity="0.4"/>
<circle cx="98.0701" cy="183.368" r="5.93804" transform="rotate(-179.016 98.0701 183.368)" fill="white" fill-opacity="0.4"/>
<circle cx="142.508" cy="171.144" r="5.93804" transform="rotate(144.984 142.508 171.144)" fill="white" fill-opacity="0.4"/>
<circle cx="172.542" cy="137.6" r="5.93804" transform="rotate(108.984 172.542 137.6)" fill="white" fill-opacity="0.4"/>
<circle cx="176.726" cy="90.2066" r="5.93804" transform="rotate(72.9843 176.726 90.2066)" fill="white" fill-opacity="0.4"/>
<circle cx="152.748" cy="47.971" r="5.93804" transform="rotate(36.9843 152.748 47.971)" fill="white" fill-opacity="0.4"/>
<circle cx="109.033" cy="30.8661" r="5.93804" transform="rotate(0.984322 109.033 30.8661)" fill="white" fill-opacity="0.4"/>
<circle cx="64.6421" cy="46.1622" r="5.93804" transform="rotate(-35.0157 64.6421 46.1622)" fill="white" fill-opacity="0.4"/>
<circle cx="34.8851" cy="82.6484" r="5.93804" transform="rotate(-71.0157 34.8851 82.6484)" fill="white" fill-opacity="0.4"/>
<circle cx="31.4922" cy="125.904" r="5.93804" transform="rotate(-107.016 31.4922 125.904)" fill="white" fill-opacity="0.4"/>
<circle cx="67.2604" cy="182.58" r="6.49724" transform="rotate(-156.173 67.2604 182.58)" fill="white" fill-opacity="0.4"/>
<circle cx="117.389" cy="190.057" r="6.49724" transform="rotate(167.827 117.389 190.057)" fill="white" fill-opacity="0.4"/>
<circle cx="161.827" cy="165.887" r="6.49724" transform="rotate(131.827 161.827 165.887)" fill="white" fill-opacity="0.4"/>
<circle cx="177.662" cy="71.1179" r="6.49724" transform="rotate(59.8272 177.662 71.1179)" fill="white" fill-opacity="0.4"/>
<circle cx="141.515" cy="36.892" r="6.49724" transform="rotate(23.8272 141.515 36.892)" fill="white" fill-opacity="0.4"/>
<circle cx="91.6855" cy="28.5317" r="6.49724" transform="rotate(-12.1728 91.6855 28.5317)" fill="white" fill-opacity="0.4"/>
<circle cx="46.3014" cy="50.92" r="6.49724" transform="rotate(-48.1728 46.3014 50.92)" fill="white" fill-opacity="0.4"/>
<circle cx="23.326" cy="96.59" r="6.49724" transform="rotate(-84.1728 23.326 96.59)" fill="white" fill-opacity="0.4"/>
<circle cx="31.7249" cy="145.656" r="6.49724" transform="rotate(-120.173 31.7249 145.656)" fill="white" fill-opacity="0.4"/>
</g>
<defs>
<clipPath id="clip0_341_2592">
<rect width="211" height="211" fill="white"/>
</clipPath>
</defs>
</svg>
